<?xml version="1.0" encoding="utf-8"?>
<!-- Generator: Adobe Illustrator 24.3.0, SVG Export Plug-In . SVG Version: 6.00 Build 0)  -->
<svg version="1.1" id="Layer_1" xmlns="http://www.w3.org/2000/svg" xmlns:xlink="http://www.w3.org/1999/xlink" x="0px" y="0px"
	 viewBox="0 0 512 512" style="enable-background:new 0 0 512 512;" xml:space="preserve">
<style type="text/css">
	.st0{fill:#FFBF00;}
	.st1{fill:#26B5F8;}
	.st2{fill:#ED3049;}
	.st3{fill:#B22437;}
</style>
<g id="XMLID_1_">
	<path id="XMLID_2_" class="st0" d="M228.66,47.38L37.85,126.31c-10.65,4.35-10.51,19.49,0.14,23.69l191.65,75.99
		c16.82,6.73,35.61,6.73,52.43,0l191.65-75.99c10.65-4.21,10.8-19.35,0.14-23.69L283.06,47.38
		C265.53,40.09,246.05,40.09,228.66,47.38"/>
	<path id="XMLID_3_" class="st1" d="M272.82,267.49v189.83c0,8.97,9.11,15.14,17.52,11.92l213.52-82.86
		c4.91-1.96,8.13-6.59,8.13-11.92V184.64c0-8.97-9.11-15.14-17.52-11.92l-213.52,82.86C276.05,257.54,272.82,262.16,272.82,267.49"
		/>
	<path id="XMLID_4_" class="st2" d="M222.91,277.31l-63.37,30.56l-6.45,3.08L19.35,375.02C10.94,379.09,0,372.92,0,363.53V185.34
		c0-3.36,1.68-6.31,4.07-8.55c0.98-0.98,2.1-1.82,3.22-2.38c3.22-1.96,7.71-2.38,11.64-0.84l202.87,80.33
		C232.17,257.96,233.01,272.4,222.91,277.31"/>
	<path id="XMLID_5_" class="st3" d="M14.3,172.58c-2.52,0-4.91,0.7-6.73,1.82c-1.12,0.7-2.24,1.4-3.22,2.38l155.2,131.08
		l63.37-30.56c4.77-2.38,7.15-6.87,7.15-11.36c0-4.91-2.8-9.95-8.13-12.06L19.07,173.56C17.52,172.86,15.84,172.58,14.3,172.58"/>
</g>
</svg>
